<svg xmlns="http://www.w3.org/2000/svg" width="1024" height="1024" viewBox="0 0 1024 1024">
  <defs>
    <linearGradient id="bg" x1="0" y1="0" x2="1" y2="1">
      <stop offset="0" stop-color="#0b0b0b" />
      <stop offset="0.38" stop-color="#241550" />
      <stop offset="0.7" stop-color="#8b5cf6" />
      <stop offset="1" stop-color="#3b82f6" />
    </linearGradient>
    <radialGradient id="nebula" cx="36%" cy="28%" r="70%">
      <stop offset="0" stop-color="#8b5cf6" stop-opacity="0.55" />
      <stop offset="0.42" stop-color="#3b82f6" stop-opacity="0.22" />
      <stop offset="1" stop-color="#0b0b0b" stop-opacity="0" />
    </radialGradient>
    <linearGradient id="wordmark" x1="0" y1="0" x2="1" y2="0">
      <stop offset="0" stop-color="#ffffff" />
      <stop offset="0.35" stop-color="#d7ccff" />
      <stop offset="0.72" stop-color="#8b5cf6" />
      <stop offset="1" stop-color="#3b82f6" />
    </linearGradient>
    <linearGradient id="ribbon" x1="0" y1="0" x2="1" y2="0">
      <stop offset="0" stop-color="#0b0b0b" />
      <stop offset="0.55" stop-color="#8b5cf6" />
      <stop offset="1" stop-color="#3b82f6" />
    </linearGradient>
    <filter id="shadow" x="-30%" y="-30%" width="160%" height="160%">
      <feDropShadow dx="0" dy="24" stdDeviation="22" flood-color="#000000" flood-opacity="0.55" />
    </filter>
    <filter id="sparkle" x="-30%" y="-30%" width="160%" height="160%">
      <feGaussianBlur stdDeviation="2.2" result="blur" />
      <feMerge>
        <feMergeNode in="blur" />
        <feMergeNode in="SourceGraphic" />
      </feMerge>
    </filter>
  </defs>

  <rect width="1024" height="1024" rx="220" fill="url(#bg)" />
  <rect width="1024" height="1024" rx="220" fill="url(#nebula)" />

  <g opacity="0.26" filter="url(#sparkle)">
    <circle cx="96" cy="196" r="2.6" fill="#ffffff" />
    <circle cx="168" cy="122" r="1.8" fill="#ffffff" />
    <circle cx="236" cy="220" r="2.1" fill="#ffffff" />
    <circle cx="320" cy="146" r="1.6" fill="#ffffff" />
    <circle cx="420" cy="98" r="2.2" fill="#ffffff" />
    <circle cx="520" cy="170" r="1.7" fill="#ffffff" />
    <circle cx="612" cy="110" r="2.4" fill="#ffffff" />
    <circle cx="720" cy="190" r="1.8" fill="#ffffff" />
    <circle cx="840" cy="138" r="2.0" fill="#ffffff" />
    <circle cx="914" cy="210" r="1.6" fill="#ffffff" />
    <circle cx="122" cy="322" r="1.5" fill="#ffffff" />
    <circle cx="260" cy="306" r="2.1" fill="#ffffff" />
    <circle cx="382" cy="340" r="1.6" fill="#ffffff" />
    <circle cx="488" cy="300" r="2.0" fill="#ffffff" />
    <circle cx="610" cy="354" r="1.6" fill="#ffffff" />
    <circle cx="742" cy="322" r="2.1" fill="#ffffff" />
    <circle cx="872" cy="356" r="1.8" fill="#ffffff" />
    <circle cx="156" cy="488" r="1.8" fill="#ffffff" />
    <circle cx="306" cy="448" r="2.3" fill="#ffffff" />
    <circle cx="470" cy="476" r="1.6" fill="#ffffff" />
    <circle cx="628" cy="444" r="2.1" fill="#ffffff" />
    <circle cx="804" cy="480" r="1.7" fill="#ffffff" />
    <circle cx="916" cy="430" r="2.2" fill="#ffffff" />
    <circle cx="110" cy="640" r="2.2" fill="#ffffff" />
    <circle cx="250" cy="600" r="1.6" fill="#ffffff" />
    <circle cx="412" cy="630" r="2.0" fill="#ffffff" />
    <circle cx="540" cy="596" r="1.7" fill="#ffffff" />
    <circle cx="702" cy="640" r="2.4" fill="#ffffff" />
    <circle cx="860" cy="610" r="1.6" fill="#ffffff" />
    <circle cx="936" cy="690" r="2.0" fill="#ffffff" />
  </g>

  <rect x="120" y="118" width="784" height="74" rx="37" fill="url(#ribbon)" opacity="0.95" />
  <text
    x="512"
    y="167"
    text-anchor="middle"
    font-family="Manrope, Arial, sans-serif"
    font-size="28"
    font-weight="700"
    fill="#ffffff"
    letter-spacing="0.14em"
  >
    THE TSHIRT COMEDIAN
  </text>
  <text
    x="512"
    y="230"
    text-anchor="middle"
    font-family="Manrope, Arial, sans-serif"
    font-size="22"
    fill="#ffffff"
    opacity="0.8"
  >
    OffendHop brand • You Will Be Offended
  </text>

  <g filter="url(#shadow)">
    <g transform="translate(176 330)">
      <rect x="0" y="0" width="120" height="240" rx="60" fill="#0b0b0b" opacity="0.28" />
      <rect x="30" y="18" width="60" height="118" rx="30" fill="#ffffff" opacity="0.18" />
      <rect x="40" y="40" width="40" height="70" rx="20" fill="#ffffff" opacity="0.28" />
      <rect x="46" y="142" width="28" height="70" rx="14" fill="#ffffff" opacity="0.18" />
      <rect x="32" y="212" width="56" height="18" rx="9" fill="#ffffff" opacity="0.18" />
    </g>

    <text
      x="540"
      y="560"
      text-anchor="middle"
      font-family="Teko, Impact, Arial Black, sans-serif"
      font-size="190"
      font-weight="700"
      fill="url(#wordmark)"
      stroke="#ffffff"
      stroke-opacity="0.62"
      stroke-width="6"
      letter-spacing="0.02em"
    >
      T-SHIRT
    </text>

    <rect x="150" y="646" width="724" height="140" rx="70" fill="#0b0b0b" opacity="0.32" />
    <rect x="168" y="662" width="688" height="108" rx="54" fill="url(#ribbon)" opacity="0.92" />
    <text
      x="512"
      y="746"
      text-anchor="middle"
      font-family="Teko, Impact, Arial Black, sans-serif"
      font-size="120"
      font-weight="700"
      fill="#ffffff"
      letter-spacing="0.12em"
    >
      COMEDIAN
    </text>
  </g>

  <rect x="92" y="92" width="840" height="840" rx="210" fill="#ffffff" opacity="0.06" />
</svg>
